<svg height="480pt" viewBox="0 0 480 480" width="480pt" xmlns="http://www.w3.org/2000/svg" xmlns:xlink="http://www.w3.org/1999/xlink"><linearGradient id="a"><stop offset="0" stop-color="#fff200"/><stop offset="1" stop-color="#cd118c"/></linearGradient><linearGradient id="b" gradientUnits="userSpaceOnUse" x1="-1.104" x2="462.896" xlink:href="#a" y1="500.504" y2="-.824"/><linearGradient id="c" gradientUnits="userSpaceOnUse" x1="-23.752" x2="440.248" xlink:href="#a" y1="479.552" y2="-21.784"/><linearGradient id="d" gradientUnits="userSpaceOnUse" x1="16.128" x2="480.128" xlink:href="#a" y1="516.456" y2="15.128"/><linearGradient id="e" gradientUnits="userSpaceOnUse" x1="56.008" x2="520.008" xlink:href="#a" y1="553.368" y2="52.04"/><linearGradient id="f" gradientUnits="userSpaceOnUse" x1="-105.624" x2="358.376" xlink:href="#a" y1="403.776" y2="-97.56"/><linearGradient id="g" gradientUnits="userSpaceOnUse" x1="-65.744" x2="398.256" xlink:href="#a" y1="440.688" y2="-60.648"/><linearGradient id="h" gradientUnits="userSpaceOnUse" x1="-25.864" x2="438.136" xlink:href="#a" y1="477.6" y2="-23.736"/><path d="m240 0c-132.546875 0-240 107.453125-240 240s107.453125 240 240 240 240-107.453125 240-240c-.148438-132.484375-107.515625-239.851562-240-240zm0 464c-123.710938 0-224-100.289062-224-224s100.289062-224 224-224 224 100.289062 224 224c-.140625 123.652344-100.347656 223.859375-224 224zm0 0" fill="url(#b)"/><path d="m352 128h-160c-13.253906 0-24 10.746094-24 24v16c0 13.253906 10.746094 24 24 24h160c13.253906 0 24-10.746094 24-24v-16c0-13.253906-10.746094-24-24-24zm8 40c0 4.417969-3.582031 8-8 8h-160c-4.417969 0-8-3.582031-8-8v-16c0-4.417969 3.582031-8 8-8h160c4.417969 0 8 3.582031 8 8zm0 0" fill="url(#c)"/><path d="m352 208h-160c-13.253906 0-24 10.746094-24 24v16c0 13.253906 10.746094 24 24 24h160c13.253906 0 24-10.746094 24-24v-16c0-13.253906-10.746094-24-24-24zm8 40c0 4.417969-3.582031 8-8 8h-160c-4.417969 0-8-3.582031-8-8v-16c0-4.417969 3.582031-8 8-8h160c4.417969 0 8 3.582031 8 8zm0 0" fill="url(#d)"/><path d="m352 288h-160c-13.253906 0-24 10.746094-24 24v16c0 13.253906 10.746094 24 24 24h160c13.253906 0 24-10.746094 24-24v-16c0-13.253906-10.746094-24-24-24zm8 40c0 4.417969-3.582031 8-8 8h-160c-4.417969 0-8-3.582031-8-8v-16c0-4.417969 3.582031-8 8-8h160c4.417969 0 8 3.582031 8 8zm0 0" fill="url(#e)"/><path d="m128 128h-16c-13.253906 0-24 10.746094-24 24v16c0 13.253906 10.746094 24 24 24h16c13.253906 0 24-10.746094 24-24v-16c0-13.253906-10.746094-24-24-24zm8 40c0 4.417969-3.582031 8-8 8h-16c-4.417969 0-8-3.582031-8-8v-16c0-4.417969 3.582031-8 8-8h16c4.417969 0 8 3.582031 8 8zm0 0" fill="url(#f)"/><path d="m128 208h-16c-13.253906 0-24 10.746094-24 24v16c0 13.253906 10.746094 24 24 24h16c13.253906 0 24-10.746094 24-24v-16c0-13.253906-10.746094-24-24-24zm8 40c0 4.417969-3.582031 8-8 8h-16c-4.417969 0-8-3.582031-8-8v-16c0-4.417969 3.582031-8 8-8h16c4.417969 0 8 3.582031 8 8zm0 0" fill="url(#g)"/><path d="m128 288h-16c-13.253906 0-24 10.746094-24 24v16c0 13.253906 10.746094 24 24 24h16c13.253906 0 24-10.746094 24-24v-16c0-13.253906-10.746094-24-24-24zm8 40c0 4.417969-3.582031 8-8 8h-16c-4.417969 0-8-3.582031-8-8v-16c0-4.417969 3.582031-8 8-8h16c4.417969 0 8 3.582031 8 8zm0 0" fill="url(#h)"/></svg>